<svg width="20" height="20" viewBox="0 0 20 20" fill="none" xmlns="http://www.w3.org/2000/svg">
    <path d="M2.01254 3.17835C1.07171 4.15153 1.04985 5.31483 1.00613 7.64141C1.00214 7.85379 1 8.06882 1 8.28571C1 8.50261 1.00214 8.71764 1.00613 8.93002C1.04985 11.2566 1.07171 12.8485 2.01254 13.8216C2.95337 14.7948 4.17826 14.8411 6.62804 14.9335C7.67843 14.9732 8.82385 15 10 15C11.1762 15 12.3216 14.9732 13.372 14.9335C15.8217 14.8411 17.0466 14.7948 17.9875 13.8216C18.9283 12.8485 18.9501 11.2566 18.9939 8.93002C18.9979 8.71764 19 8.50261 19 8.28571C19 8.06882 18.9979 7.85379 18.9939 7.64141C18.9501 5.31483 18.9283 4.15153 17.9875 3.17835C17.0466 2.20518 15.8217 2.15895 13.372 2.06648C12.3216 2.02684 11.1762 2 10 2C8.82385 2 7.67844 2.02684 6.62805 2.06648C4.17827 2.15895 2.95338 2.20518 2.01254 3.17835Z" fill="white"/>
    <path d="M5.5625 17C5.25184 17 5 17.1844 5 17.5C5 17.8156 5.25184 18 5.5625 18H14.4375C14.7482 18 15 17.8156 15 17.5C15 17.1844 14.7482 17 14.4375 17H5.5625Z" fill="white"/>
</svg>
